<?xml version="1.0" encoding="UTF-8"?>
<svg xmlns="http://www.w3.org/2000/svg" xmlns:xlink="http://www.w3.org/1999/xlink" width="16px" height="16px" viewBox="0 0 16 16" version="1.1">
<g id="surface1">
<path style=" stroke:none;fill-rule:nonzero;fill:rgb(0%,0%,0%);fill-opacity:1;" d="M 3.398438 9.035156 C 3.167969 9.15625 2.921875 9.1875 2.667969 9.125 C 2.410156 9.0625 2.222656 8.917969 2.101562 8.683594 C 1.957031 8.40625 1.929688 8.117188 2.023438 7.816406 C 2.121094 7.515625 2.316406 7.316406 2.617188 7.214844 L 8.25 5.316406 L 8.714844 6.234375 Z M 4.167969 14 L 4.167969 9.765625 L 10.050781 6.667969 L 9.75 6.082031 L 13.417969 4.265625 L 13.867188 5.183594 L 9.167969 8.699219 L 9.167969 14 Z M 5 6.332031 C 4.398438 6.332031 3.890625 6.121094 3.464844 5.699219 C 3.042969 5.277344 2.832031 4.765625 2.832031 4.167969 C 2.832031 3.566406 3.042969 3.054688 3.464844 2.632812 C 3.890625 2.210938 4.398438 2 5 2 C 5.601562 2 6.109375 2.210938 6.535156 2.632812 C 6.957031 3.054688 7.167969 3.566406 7.167969 4.167969 C 7.167969 4.765625 6.957031 5.277344 6.535156 5.699219 C 6.109375 6.121094 5.601562 6.332031 5 6.332031 Z M 5 6.332031 "/>
</g>
</svg>
